<svg width="24" height="24" viewBox="0 0 24 24" fill="none" xmlns="http://www.w3.org/2000/svg">
<path d="M18.2451 8C19.036 9.13384 19.4998 10.5128 19.4998 12C19.4998 13.4873 19.036 14.8662 18.2451 16M12.1343 4.36569L8.96863 7.53137C8.79568 7.70433 8.7092 7.7908 8.60828 7.85264C8.51881 7.90747 8.42127 7.94788 8.31923 7.97237C8.20414 8 8.08185 8 7.83726 8H6.1C5.53995 8 5.25992 8 5.04601 8.109C4.85785 8.20487 4.70487 8.35785 4.60899 8.54601C4.5 8.75992 4.5 9.03995 4.5 9.6V14.4C4.5 14.9601 4.5 15.2401 4.60899 15.454C4.70487 15.6422 4.85785 15.7951 5.04601 15.891C5.25992 16 5.53995 16 6.1 16H7.83726C8.08185 16 8.20414 16 8.31923 16.0276C8.42127 16.0521 8.51881 16.0925 8.60828 16.1474C8.7092 16.2092 8.79568 16.2957 8.96863 16.4686L12.1343 19.6343C12.5627 20.0627 12.7769 20.2769 12.9608 20.2914C13.1203 20.3039 13.2763 20.2393 13.3802 20.1176C13.5 19.9774 13.5 19.6744 13.5 19.0686V4.93137C13.5 4.32556 13.5 4.02265 13.3802 3.88239C13.2763 3.76068 13.1203 3.69609 12.9608 3.70865C12.7769 3.72312 12.5627 3.93731 12.1343 4.36569Z" stroke="black" style="stroke:black;stroke-opacity:1;" stroke-width="2" stroke-linecap="round" stroke-linejoin="round"/>
</svg>
