<svg width="60" height="60" viewBox="0 0 60 60" fill="none" xmlns="http://www.w3.org/2000/svg">
<path d="M50.625 9.84375H16.875C16.0048 9.84375 15.1702 10.1895 14.5548 10.8048C13.9395 11.4202 13.5938 12.2548 13.5938 13.125V17.3438H9.375C8.50476 17.3438 7.67016 17.6895 7.05481 18.3048C6.43945 18.9202 6.09375 19.7548 6.09375 20.625V46.875C6.09375 47.7452 6.43945 48.5798 7.05481 49.1952C7.67016 49.8105 8.50476 50.1562 9.375 50.1562H43.125C43.9952 50.1562 44.8298 49.8105 45.4452 49.1952C46.0605 48.5798 46.4062 47.7452 46.4062 46.875V42.6562H50.625C51.4952 42.6562 52.3298 42.3105 52.9452 41.6952C53.5605 41.0798 53.9062 40.2452 53.9062 39.375V13.125C53.9062 12.2548 53.5605 11.4202 52.9452 10.8048C52.3298 10.1895 51.4952 9.84375 50.625 9.84375ZM16.4062 13.125C16.4062 13.0007 16.4556 12.8815 16.5435 12.7935C16.6315 12.7056 16.7507 12.6562 16.875 12.6562H50.625C50.7493 12.6562 50.8685 12.7056 50.9565 12.7935C51.0444 12.8815 51.0938 13.0007 51.0938 13.125V28.9617L47.9367 25.8047C47.632 25.5 47.2703 25.2582 46.8722 25.0933C46.474 24.9284 46.0473 24.8435 45.6164 24.8435C45.1855 24.8435 44.7588 24.9284 44.3606 25.0933C43.9625 25.2582 43.6008 25.5 43.2961 25.8047L38.2758 30.8227L27.6328 20.1797C27.3281 19.875 26.9664 19.6332 26.5683 19.4683C26.1701 19.3034 25.7434 19.2185 25.3125 19.2185C24.8816 19.2185 24.4549 19.3034 24.0567 19.4683C23.6586 19.6332 23.2969 19.875 22.9922 20.1797L16.4062 26.7656V13.125ZM43.5938 46.875C43.5938 46.9993 43.5444 47.1185 43.4565 47.2065C43.3685 47.2944 43.2493 47.3438 43.125 47.3438H9.375C9.25068 47.3438 9.13145 47.2944 9.04354 47.2065C8.95564 47.1185 8.90625 46.9993 8.90625 46.875V20.625C8.90625 20.5007 8.95564 20.3815 9.04354 20.2935C9.13145 20.2056 9.25068 20.1562 9.375 20.1562H13.5938V39.375C13.5938 40.2452 13.9395 41.0798 14.5548 41.6952C15.1702 42.3105 16.0048 42.6562 16.875 42.6562H43.5938V46.875ZM50.625 39.8438H16.875C16.7507 39.8438 16.6315 39.7944 16.5435 39.7065C16.4556 39.6185 16.4062 39.4993 16.4062 39.375V30.743L24.9797 22.1695C25.0232 22.1259 25.0749 22.0914 25.1318 22.0678C25.1887 22.0442 25.2497 22.0321 25.3113 22.0321C25.3729 22.0321 25.4339 22.0442 25.4908 22.0678C25.5477 22.0914 25.5994 22.1259 25.643 22.1695L37.282 33.8086C37.4126 33.9393 37.5677 34.0431 37.7384 34.1138C37.9092 34.1846 38.0921 34.221 38.277 34.221C38.4618 34.221 38.6447 34.1846 38.8155 34.1138C38.9862 34.0431 39.1413 33.9393 39.2719 33.8086L45.2836 27.7945C45.3271 27.7509 45.3788 27.7164 45.4357 27.6928C45.4926 27.6692 45.5536 27.6571 45.6152 27.6571C45.6768 27.6571 45.7378 27.6692 45.7947 27.6928C45.8516 27.7164 45.9033 27.7509 45.9469 27.7945L51.1031 32.9508V39.375C51.1031 39.4374 51.0907 39.4991 51.0666 39.5566C51.0424 39.6141 51.0071 39.6662 50.9625 39.7098C50.918 39.7535 50.8652 39.7878 50.8073 39.8108C50.7493 39.8338 50.6873 39.845 50.625 39.8438ZM37.9688 19.6875C37.9688 19.224 38.1062 18.7708 38.3637 18.3854C38.6213 18 38.9873 17.6996 39.4156 17.5222C39.8439 17.3448 40.3151 17.2984 40.7697 17.3888C41.2244 17.4792 41.642 17.7024 41.9698 18.0302C42.2976 18.358 42.5208 18.7756 42.6112 19.2303C42.7016 19.6849 42.6552 20.1561 42.4778 20.5844C42.3004 21.0127 42 21.3787 41.6146 21.6363C41.2292 21.8938 40.7761 22.0312 40.3125 22.0312C39.6909 22.0312 39.0948 21.7843 38.6552 21.3448C38.2157 20.9052 37.9688 20.3091 37.9688 19.6875Z" fill="#989898" style="fill:#989898;fill:color(display-p3 0.5961 0.5961 0.5961);fill-opacity:1;"/>
</svg>
