<svg width="60" height="60" viewBox="0 0 60 60" fill="none" xmlns="http://www.w3.org/2000/svg">
<path d="M46.6386 40.2945C46.3661 39.8609 46.01 39.4858 45.5909 39.1913C45.1718 38.8969 44.6982 38.6889 44.1978 38.5796C42.2834 38.1343 40.623 36.9494 39.5795 35.2837C38.5361 33.618 38.1944 31.607 38.6291 29.6901C38.7962 28.9492 38.7407 28.1755 38.4695 27.4661C38.1983 26.7566 37.7236 26.1431 37.1049 25.7026C36.4861 25.2622 35.751 25.0143 34.9919 24.9902C34.2328 24.9661 33.4835 25.1669 32.8381 25.5672C32.1927 25.9676 31.68 26.5498 31.3644 27.2406C31.0488 27.9314 30.9443 28.7 31.0641 29.45C31.1839 30.2 31.5227 30.8979 32.0378 31.456C32.5529 32.0141 33.2215 32.4076 33.9595 32.5869C34.9143 32.8023 35.8171 33.2039 36.6163 33.7689C37.4156 34.3338 38.0954 35.051 38.6169 35.8792C39.1384 36.7075 39.4914 37.6305 39.6555 38.5953C39.8196 39.5602 39.7917 40.548 39.5733 41.5021C39.444 42.1171 39.467 42.7545 39.6405 43.3585C39.8139 43.9626 40.1325 44.5151 40.5684 44.9679C41.0043 45.4206 41.5442 45.7599 42.1413 45.9561C42.7384 46.1524 43.3743 46.1996 43.9938 46.0937C44.6134 45.9879 45.1976 45.7321 45.6956 45.3487C46.1936 44.9653 46.5902 44.4659 46.851 43.8941C47.1118 43.3222 47.2288 42.6953 47.1918 42.068C47.1547 41.4405 46.9649 40.8317 46.6386 40.2945Z" fill="url(#paint0_linear_114_530)" style=""/>
<path d="M22.9439 36.0166C23.6181 36.3845 24.3868 36.5426 25.1514 36.4705C25.9161 36.3985 26.6417 36.0997 27.2353 35.6124C27.829 35.125 28.2635 34.4715 28.483 33.7356C28.7026 32.9996 28.6973 32.2148 28.4677 31.4819C28.1768 30.5473 28.0731 29.5646 28.1627 28.5899C28.2524 27.6152 28.5334 26.6678 28.9899 25.802C29.4464 24.9362 30.0693 24.169 30.8229 23.5443C31.5765 22.9197 32.4459 22.45 33.3814 22.1621C34.1069 21.9348 34.749 21.498 35.2268 20.9067C35.7047 20.3154 35.997 19.5959 36.0669 18.8389C36.1368 18.0818 35.9812 17.321 35.6198 16.6521C35.2583 15.9833 34.7071 15.4363 34.0355 15.08C33.3638 14.7237 32.6018 14.574 31.8454 14.6498C31.0889 14.7256 30.3717 15.0234 29.7841 15.5058C29.1964 15.9882 28.7646 16.6336 28.543 17.3609C28.3213 18.0881 28.3197 18.8647 28.5384 19.5928C29.1124 21.4726 28.9183 23.5033 27.9986 25.2404C27.0789 26.9774 25.5085 28.2793 23.6312 28.8613C22.8901 29.0762 22.2305 29.5086 21.7379 30.1026C21.2454 30.6966 20.9424 31.4248 20.8684 32.1929C20.7944 32.961 20.9526 33.7336 21.3227 34.4107C21.6927 35.0879 22.2575 35.6383 22.9439 35.9908V36.0166Z" fill="url(#paint1_linear_114_530)" style=""/>
<path d="M32.8612 35.3872C32.3488 35.4052 31.8451 35.5253 31.3797 35.7403C30.9143 35.9554 30.4964 36.2612 30.1506 36.6398C28.8091 38.0747 26.954 38.92 24.9909 38.9911C23.0278 39.0621 21.1164 38.3529 19.6747 37.0187C19.3022 36.6692 18.8639 36.3972 18.3853 36.2185C17.9068 36.0399 17.3975 35.9582 16.8871 35.9782C16.2588 36.0078 15.6473 36.1908 15.106 36.5111C14.5647 36.8314 14.1101 37.2794 13.7817 37.8158C13.4533 38.3523 13.2613 38.9609 13.2223 39.5887C13.1833 40.2165 13.2985 40.8442 13.5579 41.4172C13.8173 41.9902 14.213 42.491 14.7105 42.8759C15.208 43.2608 15.7921 43.518 16.4119 43.6252C17.0317 43.7323 17.6683 43.6862 18.2661 43.4908C18.864 43.2954 19.4049 42.9566 19.8417 42.504C20.5061 41.7846 21.3059 41.2034 22.1952 40.7936C23.0846 40.3839 24.0461 40.1536 25.0246 40.116C26.0031 40.0784 26.9795 40.2342 27.8976 40.5746C28.8158 40.9149 29.6579 41.4331 30.3755 42.0993C30.8427 42.5215 31.4062 42.8227 32.0167 42.9766C32.6273 43.1306 33.2662 43.1327 33.8777 42.9826C34.4892 42.8325 35.0546 42.5349 35.5245 42.1157C35.9944 41.6966 36.3544 41.1687 36.5731 40.5782C36.7917 39.9877 36.8624 39.3527 36.7789 38.7286C36.6954 38.1045 36.4602 37.5104 36.0939 36.9982C35.7277 36.486 35.2415 36.0714 34.678 35.7906C34.1144 35.5098 33.4906 35.3712 32.8612 35.3872Z" fill="url(#paint2_linear_114_530)" style=""/>
<defs>
<linearGradient id="paint0_linear_114_530" x1="39.1072" y1="24.9883" x2="39.1072" y2="46.1488" gradientUnits="userSpaceOnUse">
<stop stop-color="#F02222" style="stop-color:#F02222;stop-color:color(display-p3 0.9416 0.1350 0.1350);stop-opacity:1;"/>
<stop offset="1" stop-color="#881414" style="stop-color:#881414;stop-color:color(display-p3 0.5316 0.0793 0.0793);stop-opacity:1;"/>
</linearGradient>
<linearGradient id="paint1_linear_114_530" x1="28.4669" y1="14.6306" x2="28.4669" y2="36.4875" gradientUnits="userSpaceOnUse">
<stop stop-color="#F02222" style="stop-color:#F02222;stop-color:color(display-p3 0.9416 0.1350 0.1350);stop-opacity:1;"/>
<stop offset="1" stop-color="#881414" style="stop-color:#881414;stop-color:color(display-p3 0.5316 0.0793 0.0793);stop-opacity:1;"/>
</linearGradient>
<linearGradient id="paint2_linear_114_530" x1="25.0139" y1="35.386" x2="25.0139" y2="43.6815" gradientUnits="userSpaceOnUse">
<stop stop-color="#F02222" style="stop-color:#F02222;stop-color:color(display-p3 0.9416 0.1350 0.1350);stop-opacity:1;"/>
<stop offset="1" stop-color="#881414" style="stop-color:#881414;stop-color:color(display-p3 0.5316 0.0793 0.0793);stop-opacity:1;"/>
</linearGradient>
</defs>
</svg>
