<svg width="24" height="24" viewBox="0 0 24 24" fill="none" xmlns="http://www.w3.org/2000/svg">
<path d="M7.96292 18.8571C8.16519 18.864 8.36677 18.83 8.55565 18.7573C8.74453 18.6846 8.91685 18.5746 9.06235 18.434C9.20786 18.2933 9.32356 18.1248 9.40259 17.9385C9.48161 17.7521 9.52234 17.5518 9.52234 17.3494C9.52234 17.147 9.48161 16.9467 9.40259 16.7604C9.32356 16.5741 9.20786 16.4056 9.06235 16.2649C8.91685 16.1242 8.74453 16.0142 8.55565 15.9415C8.36677 15.8688 8.16519 15.8349 7.96292 15.8417C7.56282 15.8417 7.17911 16.0006 6.8962 16.2836C6.61328 16.5665 6.45435 16.9502 6.45435 17.3503C6.45435 17.7504 6.61328 18.1341 6.8962 18.417C7.17911 18.6999 7.56282 18.8589 7.96292 18.8589V18.8571ZM14.7463 16.9731C15.1464 16.9731 15.5302 16.8142 15.8131 16.5313C16.096 16.2484 16.2549 15.8647 16.2549 15.4646C16.2549 15.0645 16.096 14.6808 15.8131 14.3978C15.5302 14.1149 15.1464 13.956 14.7463 13.956C14.3462 13.956 13.9625 14.1149 13.6796 14.3978C13.3967 14.6808 13.2378 15.0645 13.2378 15.4646C13.2378 15.8647 13.3967 16.2484 13.6796 16.5313C13.9625 16.8142 14.3462 16.9731 14.7463 16.9731Z" stroke="black" style="stroke:black;stroke-opacity:1;" stroke-linecap="round" stroke-linejoin="round"/>
<path d="M9.47144 17.3486V10.8668L16.2549 9.26913V15.468" stroke="black" style="stroke:black;stroke-opacity:1;" stroke-linecap="round" stroke-linejoin="round"/>
<path d="M0.857178 21V2.99999C0.857178 2.54533 1.03779 2.10929 1.35928 1.7878C1.68077 1.46631 2.11681 1.2857 2.57146 1.2857H8.89718C9.28878 1.27429 9.67248 1.39736 9.98439 1.63441C10.2963 1.87146 10.5176 2.2082 10.6115 2.58856L11.1429 4.71427H21.4286C21.8833 4.71427 22.3193 4.89488 22.6408 5.21637C22.9623 5.53787 23.1429 5.9739 23.1429 6.42856V21C23.1429 21.4546 22.9623 21.8907 22.6408 22.2122C22.3193 22.5337 21.8833 22.7143 21.4286 22.7143H2.57146C2.11681 22.7143 1.68077 22.5337 1.35928 22.2122C1.03779 21.8907 0.857178 21.4546 0.857178 21Z" stroke="black" style="stroke:black;stroke-opacity:1;" stroke-linecap="round" stroke-linejoin="round"/>
</svg>
