<svg width="20" height="24" viewBox="0 0 20 24" fill="none" xmlns="http://www.w3.org/2000/svg">
<path d="M17.0817 20.8543L17.7747 6.16927H18.7789C19.1907 6.16927 19.5225 5.8277 19.5225 5.41584C19.5225 5.00398 19.1907 4.65213 18.7789 4.65213H14.3895V3.1457C14.3895 1.70913 13.4153 0.775269 11.8686 0.775269H8.11174C6.5646 0.775269 5.60031 1.70955 5.60031 3.14527V4.65213H1.23146C0.829884 4.65213 0.478027 5.00355 0.478027 5.41584C0.478027 5.82727 0.829456 6.16927 1.23146 6.16927H2.23603L2.9286 20.8646C2.99888 22.311 3.95288 23.2247 5.39974 23.2247H14.6106C16.0467 23.2247 17.011 22.3007 17.0813 20.8547M7.20746 3.24598C7.20746 2.67341 7.6296 2.27184 8.23217 2.27184H11.758C12.3709 2.27184 12.7926 2.67341 12.7926 3.24598V4.65213H7.20746V3.24598ZM5.55017 21.7183C4.96731 21.7183 4.53574 21.276 4.50574 20.694L3.80288 6.16927H16.1672L15.5046 20.6936C15.4746 21.2863 15.0525 21.7178 14.4597 21.7178L5.55017 21.7183ZM12.9833 19.9504C13.3146 19.9504 13.5662 19.6791 13.576 19.2973L13.8773 8.69013C13.8872 8.3087 13.6262 8.02713 13.2846 8.02713C12.9735 8.02713 12.712 8.31855 12.7017 8.68027L12.4009 19.2973C12.3906 19.659 12.6417 19.9504 12.9833 19.9504ZM7.02703 19.9504C7.3686 19.9504 7.61931 19.659 7.60946 19.2973L7.30817 8.68027C7.29788 8.31855 7.02703 8.02713 6.71546 8.02713C6.37388 8.02713 6.12274 8.3087 6.1326 8.69013L6.44417 19.2973C6.45446 19.6791 6.69531 19.9504 7.02703 19.9504ZM10.6129 19.2973V8.68027C10.6129 8.31855 10.3416 8.02713 10.0099 8.02713C9.6786 8.02713 9.39703 8.31855 9.39703 8.68027V19.2973C9.39703 19.659 9.6786 19.9504 10.0099 19.9504C10.3313 19.9504 10.6129 19.659 10.6129 19.2973Z" fill="black" style="fill:black;fill-opacity:1;"/>
</svg>
